<svg width="213.000000" height="124.000000" viewBox="0 0 213 124" fill="none" xmlns="http://www.w3.org/2000/svg" xmlns:xlink="http://www.w3.org/1999/xlink">
	<desc>
			Created with Pixso.
	</desc>
	<defs>
		<clipPath id="clip52_18">
			<rect id="css 1" rx="0.000000" width="63.000000" height="63.000000" transform="translate(75.000000 30.500000)" fill="white" fill-opacity="0"/>
		</clipPath>
		<clipPath id="clip52_10">
			<rect id="card" rx="11.500000" width="212.000000" height="123.000000" transform="translate(0.500000 0.500000)" fill="white" fill-opacity="0"/>
		</clipPath>
	</defs>
	<rect id="card" rx="11.500000" width="212.000000" height="123.000000" transform="translate(0.500000 0.500000)" fill="#1B1B1B" fill-opacity="1.000000"/>
	<g clip-path="url(#clip52_10)">
		<rect id="css 1" rx="0.000000" width="63.000000" height="63.000000" transform="translate(75.000000 30.500000)" fill="#FFFFFF" fill-opacity="0"/>
		<g clip-path="url(#clip52_18)">
			<path id="Vector" d="M86.3 84.4L81.81 34L131.18 34L126.69 84.39L106.47 90L86.3 84.4Z" fill="#1572B6" fill-opacity="1.000000" fill-rule="nonzero"/>
			<path id="Vector" d="M106.5 85.71L122.84 81.18L126.68 38.12L106.5 38.12L106.5 85.71Z" fill="#33A9DC" fill-opacity="1.000000" fill-rule="nonzero"/>
			<path id="Vector" d="M106.5 56.38L114.68 56.38L115.24 50.05L106.5 50.05L106.5 43.87L106.52 43.87L122 43.87L121.85 45.52L120.33 62.56L106.5 62.56L106.5 56.38Z" fill="#FFFFFF" fill-opacity="1.000000" fill-rule="nonzero"/>
			<path id="Vector" d="M106.53 72.43L106.51 72.44L99.62 70.58L99.18 65.65L95.84 65.65L92.98 65.65L93.84 75.36L106.5 78.87L106.53 78.86L106.53 72.43Z" fill="#EBEBEB" fill-opacity="1.000000" fill-rule="nonzero"/>
			<path id="Vector" d="M114.15 62.3L113.41 70.58L106.51 72.44L106.51 78.87L119.18 75.36L119.28 74.31L120.35 62.3L114.15 62.3Z" fill="#FFFFFF" fill-opacity="1.000000" fill-rule="nonzero"/>
			<path id="Vector" d="M106.52 43.87L106.52 47.71L106.52 50.03L106.52 50.05L91.61 50.05L91.59 50.05L91.46 48.66L91.18 45.52L91.03 43.87L106.52 43.87Z" fill="#EBEBEB" fill-opacity="1.000000" fill-rule="nonzero"/>
			<path id="Vector" d="M106.5 56.38L106.5 60.22L106.5 62.54L106.5 62.56L99.72 62.56L99.7 62.56L99.57 61.17L99.29 58.04L99.14 56.38L106.5 56.38Z" fill="#EBEBEB" fill-opacity="1.000000" fill-rule="nonzero"/>
		</g>
	</g>
	<rect id="card" rx="11.500000" width="212.000000" height="123.000000" transform="translate(0.500000 0.500000)" stroke="#FFFFFF" stroke-opacity="0.250000" stroke-width="1.000000"/>
</svg>
