<svg width="213.000000" height="124.000000" viewBox="0 0 213 124" fill="none" xmlns="http://www.w3.org/2000/svg" xmlns:xlink="http://www.w3.org/1999/xlink">
	<desc>
			Created with Pixso.
	</desc>
	<defs>
		<clipPath id="clip52_14">
			<rect id="html-5 1" rx="0.000000" width="63.000000" height="63.000000" transform="translate(75.000000 30.500000)" fill="white" fill-opacity="0"/>
		</clipPath>
		<clipPath id="clip52_8">
			<rect id="card" rx="11.500000" width="212.000000" height="123.000000" transform="translate(0.500000 0.500000)" fill="white" fill-opacity="0"/>
		</clipPath>
	</defs>
	<rect id="card" rx="11.500000" width="212.000000" height="123.000000" transform="translate(0.500000 0.500000)" fill="#1B1B1B" fill-opacity="1.000000"/>
	<g clip-path="url(#clip52_8)">
		<rect id="html-5 1" rx="0.000000" width="63.000000" height="63.000000" transform="translate(75.000000 30.500000)" fill="#FFFFFF" fill-opacity="0"/>
		<g clip-path="url(#clip52_14)">
			<path id="Vector" d="M86.5 86L82.5 36L130.5 36L126.5 86L106.5 92L86.5 86Z" fill="#E44D26" fill-opacity="1.000000" fill-rule="nonzero"/>
			<path id="Vector" d="M126.5 40L106.5 40L106.5 89L122.5 84L126.5 40Z" fill="#F16529" fill-opacity="1.000000" fill-rule="nonzero"/>
			<path id="Vector" d="M93.5 65L91.5 46L122.5 46L121.5 52L97.5 52L98.5 59L120.5 59L118.5 78L106.5 82L94.5 78L93.5 68L99.5 68L100.5 73L106.5 75L112.5 73L113.5 65L93.5 65Z" fill="#FFFFFF" fill-opacity="1.000000" fill-rule="nonzero"/>
		</g>
	</g>
	<rect id="card" rx="11.500000" width="212.000000" height="123.000000" transform="translate(0.500000 0.500000)" stroke="#FFFFFF" stroke-opacity="0.250000" stroke-width="1.000000"/>
</svg>
