<svg width="213.000000" height="124.000000" viewBox="0 0 213 124" fill="none" xmlns="http://www.w3.org/2000/svg" xmlns:xlink="http://www.w3.org/1999/xlink">
	<desc>
			Created with Pixso.
	</desc>
	<defs>
		<clipPath id="clip52_4342">
			<rect id="js 1" rx="0.000000" width="63.000000" height="63.000000" transform="translate(75.000000 30.500000)" fill="white" fill-opacity="0"/>
		</clipPath>
		<clipPath id="clip52_4341">
			<rect id="card" rx="11.500000" width="212.000000" height="123.000000" transform="translate(0.500000 0.500000)" fill="white" fill-opacity="0"/>
		</clipPath>
	</defs>
	<rect id="card" rx="11.500000" width="212.000000" height="123.000000" transform="translate(0.500000 0.500000)" fill="#1B1B1B" fill-opacity="1.000000"/>
	<g clip-path="url(#clip52_4341)">
		<rect id="js 1" rx="0.000000" width="63.000000" height="63.000000" transform="translate(75.000000 30.500000)" fill="#FFFFFF" fill-opacity="0"/>
		<g clip-path="url(#clip52_4342)">
			<path id="Vector" d="M78.5 34L134.5 34L134.5 90L78.5 90L78.5 34Z" fill="#FFCA28" fill-opacity="1.000000" fill-rule="evenodd"/>
			<path id="Vector" d="M112.5 80.57L116.62 77.84C116.94 78.86 118.99 81.27 121.57 81.27C124.16 81.27 125.36 79.86 125.36 78.92C125.36 76.37 122.72 75.47 121.45 75.04C121.24 74.97 121.07 74.91 120.96 74.86C120.9 74.83 120.81 74.8 120.69 74.76C119.28 74.22 114.08 72.23 114.08 66.47C114.08 60.12 120.2 59.4 121.59 59.4C122.49 59.4 126.85 59.51 129.02 63.58L125.02 66.37C124.14 64.6 122.68 64.01 121.79 64.01C119.57 64.01 119.11 65.64 119.11 66.37C119.11 68.45 121.52 69.38 123.55 70.16C124.08 70.37 124.59 70.56 125.02 70.77C127.23 71.82 130.5 73.53 130.5 78.92C130.5 81.62 128.23 86 122.53 86C114.86 86 112.83 81.4 112.5 80.57Z" fill="#3E3E3E" fill-opacity="1.000000" fill-rule="nonzero"/>
			<path id="Vector" d="M92.5 81.11L96.79 78.39C97.13 79.4 98.44 81.27 100.34 81.27C102.24 81.27 103.21 79.32 103.21 78.39L103.21 60L108.49 60L108.49 78.39C108.58 80.92 107.17 86 100.96 86C95.25 86 92.88 82.6 92.5 81.11Z" fill="#3E3E3E" fill-opacity="1.000000" fill-rule="nonzero"/>
		</g>
	</g>
	<rect id="card" rx="11.500000" width="212.000000" height="123.000000" transform="translate(0.500000 0.500000)" stroke="#FFFFFF" stroke-opacity="0.250000" stroke-width="1.000000"/>
</svg>

