<svg width="213.000000" height="124.000000" viewBox="0 0 213 124" fill="none" xmlns="http://www.w3.org/2000/svg" xmlns:xlink="http://www.w3.org/1999/xlink">
	<desc>
			Created with Pixso.
	</desc>
	<defs>
		<clipPath id="clip52_4354">
			<rect id="react 1" rx="0.000000" width="63.000000" height="63.000000" transform="translate(75.000000 30.500000)" fill="white" fill-opacity="0"/>
		</clipPath>
		<clipPath id="clip52_4353">
			<rect id="card" rx="11.500000" width="212.000000" height="123.000000" transform="translate(0.500000 0.500000)" fill="white" fill-opacity="0"/>
		</clipPath>
	</defs>
	<rect id="card" rx="11.500000" width="212.000000" height="123.000000" transform="translate(0.500000 0.500000)" fill="#1B1B1B" fill-opacity="1.000000"/>
	<g clip-path="url(#clip52_4353)">
		<rect id="react 1" rx="0.000000" width="63.000000" height="63.000000" transform="translate(75.000000 30.500000)" fill="#FFFFFF" fill-opacity="0"/>
		<g clip-path="url(#clip52_4354)">
			<path id="Vector" d="M111.85 61.95C111.85 59.08 109.45 56.75 106.5 56.75C103.54 56.75 101.14 59.08 101.14 61.95C101.14 64.82 103.54 67.14 106.5 67.14C109.45 67.14 111.85 64.82 111.85 61.95Z" fill="#53C1DE" fill-opacity="1.000000" fill-rule="nonzero"/>
			<path id="Vector" d="M123.9 52.3C125.03 47.84 126.45 39.58 121.44 36.78C116.45 33.99 109.95 39.33 106.52 42.54C103.1 39.36 96.43 34.04 91.42 36.85C86.43 39.65 87.97 47.78 89.12 52.27C84.47 53.55 76.5 56.31 76.5 61.95C76.5 67.57 84.46 70.57 89.09 71.85C87.93 76.36 86.47 84.38 91.46 87.17C96.49 89.98 103.15 84.78 106.61 81.54C110.06 84.77 116.49 90 121.48 87.2C126.49 84.39 125.18 76.23 124.03 71.72C128.51 70.44 136.5 67.5 136.5 61.95C136.5 56.36 128.48 53.58 123.9 52.3ZM123.33 69.33C122.57 67 121.54 64.52 120.29 61.96C121.49 59.46 122.47 57.01 123.21 54.7C126.57 55.64 133.93 57.8 133.93 61.95C133.93 66.13 126.86 68.31 123.33 69.33ZM120.2 85.05C116.47 87.14 110.94 82.13 108.39 79.76C110.08 77.96 111.77 75.88 113.42 73.56C116.32 73.32 119.06 72.91 121.55 72.35C122.36 75.54 123.94 82.95 120.2 85.05ZM92.74 85.02C89.02 82.93 90.72 75.78 91.57 72.46C94.03 72.99 96.75 73.37 99.66 73.6C101.32 75.86 103.06 77.94 104.81 79.77C102.65 81.8 96.48 87.11 92.74 85.02ZM79.06 61.95C79.06 57.74 86.38 55.6 89.81 54.66C90.56 57.03 91.55 59.5 92.74 62.01C91.53 64.55 90.53 67.06 89.78 69.46C86.5 68.55 79.06 66.15 79.06 61.95ZM92.7 39C96.44 36.9 102.25 42.01 104.73 44.32C102.98 46.13 101.26 48.2 99.62 50.45C96.79 50.7 94.09 51.11 91.61 51.65C90.68 48.04 88.97 41.1 92.7 39ZM115.25 53.15C117.17 53.38 119 53.7 120.72 54.08C120.21 55.68 119.56 57.36 118.8 59.09C117.7 57.06 116.52 55.08 115.25 53.15ZM106.52 46.09C107.71 47.33 108.89 48.72 110.06 50.22C107.69 50.12 105.33 50.12 102.96 50.22C104.13 48.73 105.32 47.35 106.52 46.09ZM94.21 59.08C93.46 57.37 92.82 55.68 92.3 54.05C94.01 53.68 95.84 53.37 97.74 53.14C96.47 55.07 95.29 57.05 94.21 59.08ZM97.8 70.93C95.83 70.71 93.98 70.43 92.27 70.06C92.8 68.41 93.45 66.68 94.21 64.93C95.31 66.98 96.5 68.98 97.8 70.93ZM106.6 77.98C105.38 76.71 104.17 75.3 102.99 73.79C105.36 73.88 107.74 73.88 110.12 73.78C108.95 75.32 107.77 76.72 106.6 77.98ZM118.83 64.84C119.63 66.61 120.31 68.33 120.84 69.96C119.1 70.34 117.23 70.65 115.25 70.88C116.53 68.92 117.73 66.9 118.83 64.84ZM111.99 71.18C108.36 71.43 104.7 71.43 101.06 71.2C99 68.28 97.16 65.2 95.57 62.01C97.15 58.82 98.98 55.75 101.03 52.83C104.67 52.56 108.33 52.56 111.97 52.83C114.01 55.75 115.83 58.81 117.45 61.97C115.85 65.16 114.01 68.23 111.99 71.18ZM120.16 38.93C123.9 41.02 122.23 48.45 121.41 51.68C118.93 51.12 116.22 50.71 113.39 50.45C111.74 48.18 110.04 46.11 108.32 44.31C110.83 41.96 116.45 36.86 120.16 38.93Z" fill="#53C1DE" fill-opacity="1.000000" fill-rule="evenodd"/>
		</g>
	</g>
	<rect id="card" rx="11.500000" width="212.000000" height="123.000000" transform="translate(0.500000 0.500000)" stroke="#FFFFFF" stroke-opacity="0.250000" stroke-width="1.000000"/>
</svg>

